<svg id="Calque_1" data-name="Calque 1" xmlns="http://www.w3.org/2000/svg" viewBox="0 0 28.39 25.28">
    <defs>
        <style>
            .cls-1 {
                fill: #1d1d1b;
            }

            .cls-2 {
                fill: #fff;
            }
        </style>
    </defs>
    <path class="cls-1" d="M282.79,416.35a7.05,7.05,0,1,1,7,6.66,6.87,6.87,0,0,1-7-6.66"
        transform="translate(-282.79 -398.26)" />
    <path class="cls-2"
        d="M291.14,421.73V411a6.21,6.21,0,0,1,2.15.94v8.88a6,6,0,0,1-2.15.94m-4.77-.94h0v-8.88a6.21,6.21,0,0,1,2.15-.94v10.76a6,6,0,0,1-2.15-.94M284,416.35a5.39,5.39,0,0,1,2.15-4.27v8.54a5.39,5.39,0,0,1-2.15-4.27m5.84,5.52a6.17,6.17,0,0,1-1.07-.1V410.93a6.41,6.41,0,0,1,2.14,0v10.84a6.17,6.17,0,0,1-1.07.1m5.84-5.52a5.39,5.39,0,0,1-2.15,4.27v-8.54a5.39,5.39,0,0,1,2.15,4.27m-2.15,4.55a5.65,5.65,0,0,0,2.38-4.55,6.08,6.08,0,0,0-12.14,0,5.6,5.6,0,0,0,2.4,4.56h0l.06,0h0a6.27,6.27,0,0,0,2.32,1h0l.12,0a6.3,6.3,0,0,0,1.15.1A6.86,6.86,0,0,0,291,422l.17,0a6.32,6.32,0,0,0,2.26-.95Z"
        transform="translate(-282.79 -398.26)" />
    <path class="cls-1" d="M297.09,416.89a7.06,7.06,0,1,1,7.05,6.65,6.87,6.87,0,0,1-7.05-6.65"
        transform="translate(-282.79 -398.26)" />
    <path class="cls-2"
        d="M305.44,422.26V411.51a5.78,5.78,0,0,1,2.15.94v8.88a5.93,5.93,0,0,1-2.15.93m-4.76-.93h0a0,0,0,0,0,0,0v-8.84a5.78,5.78,0,0,1,2.15-.94v10.75h0a5.93,5.93,0,0,1-2.15-.93m-2.38-4.44a5.39,5.39,0,0,1,2.15-4.27v8.54a5.39,5.39,0,0,1-2.15-4.27m5.84,5.51a6.38,6.38,0,0,1-1.08-.09V411.47a5.83,5.83,0,0,1,2.15,0v10.84a6.35,6.35,0,0,1-1.07.09m5.83-5.51a5.37,5.37,0,0,1-2.15,4.27v-8.54a5.37,5.37,0,0,1,2.15,4.27m-2.15,4.55a5.63,5.63,0,0,0,2.39-4.55,6.08,6.08,0,0,0-12.14,0,5.62,5.62,0,0,0,2.4,4.56h0l.06.05h0a6.3,6.3,0,0,0,2.33,1h0l.13,0a6.23,6.23,0,0,0,1.15.1,6,6,0,0,0,1.12-.1l.17,0a6.39,6.39,0,0,0,2.26-.95Z"
        transform="translate(-282.79 -398.26)" />
    <path class="cls-1" d="M290.27,404.92a7.06,7.06,0,1,1,7,6.65,6.87,6.87,0,0,1-7-6.65"
        transform="translate(-282.79 -398.26)" />
    <path class="cls-2"
        d="M298.62,410.29V399.54a5.93,5.93,0,0,1,2.15.93v8.89a5.93,5.93,0,0,1-2.15.93m-4.76-.93h0s0,0,0,0v-8.85a5.93,5.93,0,0,1,2.15-.93v10.75a5.93,5.93,0,0,1-2.15-.93m-2.38-4.44a5.43,5.43,0,0,1,2.15-4.28v8.55a5.39,5.39,0,0,1-2.15-4.27m5.83,5.51a6.35,6.35,0,0,1-1.07-.09V399.5a5.83,5.83,0,0,1,2.15,0v10.84a6.38,6.38,0,0,1-1.08.09m5.84-5.51a5.39,5.39,0,0,1-2.15,4.27v-8.55a5.41,5.41,0,0,1,2.15,4.28M301,409.47a5.62,5.62,0,0,0,2.38-4.55,6.08,6.08,0,0,0-12.14,0,5.64,5.64,0,0,0,2.4,4.56h0l.07,0h0a6.23,6.23,0,0,0,2.33,1h0l.13,0a6.12,6.12,0,0,0,1.14.1,6,6,0,0,0,1.13-.1l.16,0a6.24,6.24,0,0,0,2.26-.95Z"
        transform="translate(-282.79 -398.26)" />
</svg>