<svg id="Calque_1" data-name="Calque 1" xmlns="http://www.w3.org/2000/svg" viewBox="0 0 129.22 209.32">
    <defs>
        <style>
            .cls-1 {
                fill: #1d1d1b;
            }

            .cls-2 {
                fill: #CB8827;
            }

            .cls-3 {
                fill: none;
                stroke: #1d1d1b;
                stroke-miterlimit: 10;
            }
        </style>
    </defs>
    <path class="cls-1"
        d="M359.63,323.53H343.29v-12.6a2.19,2.19,0,0,0-2.19-2.19h-6.79a2.19,2.19,0,0,0-2.18,2.19v12.6H235.65a2.62,2.62,0,0,0-2.62,2.62V330a2.62,2.62,0,0,0,2.56,2.62V481.8a.75.75,0,0,0,.74.75h2.25v32a.74.74,0,0,0,.74.74h7.9a.75.75,0,0,0,.64-.36l19.31-32.4h26.29v15.32a4.15,4.15,0,0,0,0,.61.68.68,0,0,0,0,.15v.12a.73.73,0,0,0,.06.3,4.14,4.14,0,0,0,4.09,3.45h.19a4.21,4.21,0,0,0,3.78-2.88.73.73,0,0,0,.23-.54V482.55h26.24L347.37,515a.75.75,0,0,0,.64.36h7.9a.74.74,0,0,0,.74-.74v-32h2.29a.75.75,0,0,0,.75-.75V332.57a2.62,2.62,0,0,0,2.56-2.62v-3.8A2.63,2.63,0,0,0,359.63,323.53ZM341.8,477a.7.7,0,0,1-.7.7h-6.79a.69.69,0,0,1-.69-.7V310.93a.7.7,0,0,1,.69-.71h6.79a.7.7,0,0,1,.7.71Z"
        transform="translate(-233.03 -308.74)" />
    <path class="cls-2"
        d="M317.69,437.06c-5.39-3.35-12.52-5.19-20.05-5.19s-14.66,1.84-20.06,5.19c-5.79,3.59-9,8.49-9,13.82s3.19,10.22,9,13.8c5.41,3.35,12.52,5.19,20.06,5.19s14.66-1.84,20.05-5.19c5.79-3.58,9-8.49,9-13.8S323.48,440.65,317.69,437.06Zm-.79,26.36c-5.16,3.2-12,5-19.26,5s-14.11-1.76-19.27-5c-5.33-3.3-8.27-7.76-8.27-12.54s2.94-9.25,8.27-12.56c5.16-3.2,12-4.95,19.27-4.95s14.1,1.75,19.26,4.95c5.35,3.31,8.29,7.77,8.29,12.56S322.25,460.12,316.9,463.42Z"
        transform="translate(-233.03 -308.74)" />
    <path class="cls-2"
        d="M312.91,443a35.71,35.71,0,0,0-30.54,0c-3.92,2.12-6.07,4.91-6.07,7.84s2.15,5.72,6.07,7.85a35.8,35.8,0,0,0,30.54,0c3.91-2.13,6.07-4.92,6.07-7.85s-2.16-5.72-6.07-7.84"
        transform="translate(-233.03 -308.74)" />
    <path class="cls-3"
        d="M312.91,443a35.71,35.71,0,0,0-30.54,0c-3.92,2.12-6.07,4.91-6.07,7.84s2.15,5.72,6.07,7.85a35.8,35.8,0,0,0,30.54,0c3.91-2.13,6.07-4.92,6.07-7.85S316.82,445.15,312.91,443Z"
        transform="translate(-233.03 -308.74)" />
    <path class="cls-3"
        d="M297.84,504.39c-.14.21-3.62,5.05-3.62,8.43,0,3.13,1.39,4.73,4.12,4.73s4.33-1.64,4.33-4.73c0-3.38-3.47-8.22-3.62-8.43A.78.78,0,0,0,297.84,504.39Z"
        transform="translate(-233.03 -308.74)" />
</svg>