<svg id="Calque_1" data-name="Calque 1" xmlns="http://www.w3.org/2000/svg" viewBox="0 0 75.88 107.48">
    <defs>
        <style>
            .cls-1 {
                fill: #ffffff;
            }
        </style>
    </defs>
    <path class="cls-1"
        d="M309.07,449.66a1.66,1.66,0,0,1-1.56-1c-1.76-4.15,1.15-8.28,3.48-11.6l.09-.12c-5.76-.78-11.56-5.43-12.93-10.66a1.57,1.57,0,0,1,.5-1.58,17.34,17.34,0,0,1,17-2h0c0-4,0-9.08,3.88-11.62a1.8,1.8,0,0,1,.95-.27,1.74,1.74,0,0,1,1,.31,20.33,20.33,0,0,1,7.22,9.8c1.1,3.16-.55,5.83-2.16,8.4a11.24,11.24,0,0,0-2.52,7.91c-.18,3-.35,6.09-3.12,8.14a22,22,0,0,1-11.72,4.34h-.08"
        transform="translate(-290.25 -410.76)" />
    <path class="cls-1"
        d="M337.71,426.17a7,7,0,0,0,1,6.62,7.76,7.76,0,0,0,6,3,5,5,0,0,0,3.92-1.57c1.63-2.06,1.79-4.08.45-5.84-1.78-2.32-6.24-3.88-10.6-2.47l-.77.29M327.32,447.6a1.64,1.64,0,0,1-1.68-1.55c-.45-14.15,5.21-19.86,9.32-22.13a15.67,15.67,0,0,1,5-5.93c6.56-4.88,17.42-6,25.76,3a1.56,1.56,0,0,1-.15,2.26,1.77,1.77,0,0,1-2.38-.14c-6.93-7.5-15.62-6.69-21.16-2.58a14.1,14.1,0,0,0-1.95,1.76c4.6-.57,9.31,1,11.73,4.21,2.23,2.91,2.05,6.43-.49,9.63a8.15,8.15,0,0,1-6.67,2.84,11.11,11.11,0,0,1-8.68-4.34,10.23,10.23,0,0,1-2-5.89c-3.42,3.49-5.18,9.47-4.93,17.23a1.64,1.64,0,0,1-1.63,1.65Z"
        transform="translate(-290.25 -410.76)" />
    <path class="cls-1"
        d="M327.41,450.11c6.59,0,11.93,5.07,11.93,11.33s-5.34,11.34-11.93,11.34-11.92-5.08-11.92-11.34,5.34-11.33,11.92-11.33m25.25,0c6.59,0,11.92,5.07,11.92,11.33s-5.33,11.34-11.92,11.34-11.93-5.08-11.93-11.34,5.34-11.33,11.93-11.33M340,472.8c6.59,0,11.93,5.07,11.93,11.33s-5.34,11.34-11.93,11.34-11.93-5.07-11.93-11.34S333.4,472.8,340,472.8m-25.24,0c6.59,0,11.93,5.07,11.93,11.33s-5.34,11.34-11.93,11.34-11.93-5.07-11.93-11.34,5.34-11.33,11.93-11.33m12.67,22.77c6.59,0,11.93,5.07,11.93,11.34s-5.34,11.33-11.93,11.33-11.92-5.07-11.92-11.33,5.34-11.34,11.92-11.34m-25.24-45.46c6.59,0,11.93,5.07,11.93,11.33s-5.34,11.34-11.93,11.34-11.92-5.08-11.92-11.34,5.34-11.33,11.92-11.33"
        transform="translate(-290.25 -410.76)" />
    <path class="cls-1"
        d="M352.66,450.11c6.59,0,11.92,5.07,11.92,11.33s-5.33,11.34-11.92,11.34-11.93-5.08-11.93-11.34,5.34-11.33,11.93-11.33M340,472.8c6.59,0,11.93,5.07,11.93,11.33s-5.34,11.34-11.93,11.34-11.93-5.07-11.93-11.34S333.4,472.8,340,472.8m-12.59,22.77v22.67h0c6.59,0,11.93-5.07,11.93-11.33s-5.34-11.34-11.93-11.34Zm0-45.46v22.67h0c6.59,0,11.93-5.08,11.93-11.34s-5.34-11.33-11.93-11.33Z"
        transform="translate(-290.25 -410.76)" />
</svg>