<svg xmlns="http://www.w3.org/2000/svg" id="Layer_1" data-name="Layer 1" viewBox="0 0 272 132.74">
    <defs>
        <style>
            .cls-1 {
                fill: none;
                stroke: #fff;
                stroke-miterlimit: 10;
                stroke-width: 1.5px;
            }

            .cls-2 {
                fill: #fff;
            }
        </style>
    </defs>
    <path class="cls-1"
        d="M391.5,410.08c-14.88-14.74-5.48-31.65-5.48-31.65.85,5,6.33,7.06,6.33,7.06.61-11.93,14.73-21.07,23.74-24.6S430.58,348,430.58,348c5.72,10.83-1.34,25.69-1.34,25.69,3.77-7.19,13.39-8,13.39-8-2.56,4.14-3.77,6.94,3.77,20.46a23.88,23.88,0,0,1,.14,24"
        transform="translate(-280 -306.36)" />
    <path class="cls-1"
        d="M455.42,410.08c9.37-9.5,9.39-23.75,4.5-35.43-5-11.93,2.43-22,2.43-22-12.66-2.31-17.65,5.73-17.65,5.73,3.41-32-17.53-49.8-17.53-49.8,4,13.88-6.21,31.29-20.82,39.57s-16.56,19.48-16.56,19.48c-2.19-4.38.61-13.27.61-13.27-4.63,2.19-21.55,12.9-21.55,31.78,0,15.17,8.1,21.92,11.28,24"
        transform="translate(-280 -306.36)" />
    <line class="cls-1" y1="103.74" x2="272" y2="103.74" />
</svg>