<svg xmlns="http://www.w3.org/2000/svg" id="Layer_1" data-name="Layer 1" viewBox="0 0 272 105.5">
    <defs>
        <style>
            .cls-1 {
                fill: none;
                stroke: #fff;
                stroke-miterlimit: 10;
                stroke-width: 1.5px;
            }

            .cls-2 {
                fill: #fff;
            }
        </style>
    </defs>
    <line class="cls-1" y1="76.5" x2="272" y2="76.5" />
    <path class="cls-1" d="M431.87,410.1c-3.53-9.5-3.43-20.92,6.11-33.41,17.93-23.48,12.75-32.73,1-42.51"
        transform="translate(-293.73 -333.6)" />
    <path class="cls-1" d="M438.81,334.18c11.56,10.11,16.42,19.61-2.13,42.7-9.84,12.24-10.23,23.64-6.95,33.22"
        transform="translate(-293.73 -333.6)" />
    <path class="cls-1" d="M445.77,410.1c-3.53-9.5-3.43-20.92,6.11-33.41,17.93-23.48,12.75-32.73,1-42.51"
        transform="translate(-293.73 -333.6)" />
    <path class="cls-1" d="M452.72,334.18c11.56,10.11,16.41,19.61-2.14,42.7-9.83,12.24-10.23,23.64-6.94,33.22"
        transform="translate(-293.73 -333.6)" />
    <path class="cls-1" d="M403.12,410.1c-3.53-9.5-3.43-20.92,6.11-33.41,17.94-23.48,12.75-32.73,1-42.51"
        transform="translate(-293.73 -333.6)" />
    <path class="cls-1" d="M410.07,334.18c11.56,10.11,16.41,19.61-2.14,42.7-9.83,12.24-10.22,23.64-6.94,33.22"
        transform="translate(-293.73 -333.6)" />
    <path class="cls-1" d="M417,410.1c-3.52-9.5-3.42-20.92,6.12-33.41,17.93-23.48,12.75-32.73,1-42.51"
        transform="translate(-293.73 -333.6)" />
    <path class="cls-1" d="M424,334.18c11.56,10.11,16.42,19.61-2.13,42.7-9.84,12.24-10.23,23.64-6.95,33.22"
        transform="translate(-293.73 -333.6)" />
    <path class="cls-1" d="M374.4,410.1c-3.53-9.5-3.43-20.92,6.11-33.41,17.94-23.48,12.75-32.73,1-42.51"
        transform="translate(-293.73 -333.6)" />
    <path class="cls-1" d="M381.35,334.18c11.56,10.11,16.42,19.61-2.14,42.7-9.83,12.24-10.22,23.64-6.94,33.22"
        transform="translate(-293.73 -333.6)" />
    <path class="cls-1" d="M388.31,410.1c-3.53-9.5-3.43-20.92,6.11-33.41,17.93-23.48,12.75-32.73,1-42.51"
        transform="translate(-293.73 -333.6)" />
    <path class="cls-1" d="M395.25,334.18c11.56,10.11,16.42,19.61-2.13,42.7-9.84,12.24-10.23,23.64-6.95,33.22"
        transform="translate(-293.73 -333.6)" />
    <path class="cls-1" d="M460.82,410.1c-3.53-9.5-3.43-20.92,6.11-33.41,17.94-23.48,12.75-32.73,1-42.51"
        transform="translate(-293.73 -333.6)" />
    <path class="cls-1" d="M467.77,334.18c11.56,10.11,16.41,19.61-2.14,42.7-9.83,12.24-10.22,23.64-6.94,33.22"
        transform="translate(-293.73 -333.6)" />
    <path class="cls-1" d="M474.72,410.1c-3.52-9.5-3.42-20.92,6.12-33.41,17.93-23.48,12.75-32.73,1-42.51"
        transform="translate(-293.73 -333.6)" />
    <path class="cls-1" d="M481.67,334.18c11.56,10.11,16.42,19.61-2.13,42.7-9.84,12.24-10.23,23.64-7,33.22"
        transform="translate(-293.73 -333.6)" />
</svg>