<svg id="Layer_1" data-name="Layer 1" xmlns="http://www.w3.org/2000/svg" viewBox="0 0 272.13 112.18"><defs><style>.cls-1{fill:none;stroke:#fff;stroke-miterlimit:10;stroke-width:1.5px;}.cls-2{fill:#fff;}</style></defs><line class="cls-1" y1="83.17" x2="272.13" y2="83.17"/><path class="cls-2" d="M328.33,424.18,327,425.23a7.41,7.41,0,0,0-2.7-2.23,7.93,7.93,0,0,0-3.46-.75,7.64,7.64,0,0,0-3.82,1,7.13,7.13,0,0,0-2.73,2.66,7.32,7.32,0,0,0-1,3.76,7,7,0,0,0,2.17,5.26,7.47,7.47,0,0,0,5.45,2.11A7.65,7.65,0,0,0,327,434.2l1.36,1a8.7,8.7,0,0,1-3.21,2.54,10.26,10.26,0,0,1-4.31.89,9,9,0,0,1-7.14-3,9.05,9.05,0,0,1-2.2-6.14,8.57,8.57,0,0,1,2.66-6.38,9.17,9.17,0,0,1,6.65-2.58,9.9,9.9,0,0,1,4.37.95A8.54,8.54,0,0,1,328.33,424.18Z" transform="translate(-294.22 -326.49)"/><path class="cls-2" d="M331.53,420.55h1.64v7.21a6.9,6.9,0,0,1,2.19-2,5.25,5.25,0,0,1,2.59-.66,4.56,4.56,0,0,1,2.54.73,4.36,4.36,0,0,1,1.63,1.95,10.19,10.19,0,0,1,.53,3.84v6.57H341v-6.09a15.22,15.22,0,0,0-.18-2.94,3.32,3.32,0,0,0-1.1-1.9,3.28,3.28,0,0,0-2.11-.64,4.1,4.1,0,0,0-2.67,1,4.65,4.65,0,0,0-1.55,2.44,16.7,16.7,0,0,0-.23,3.47v4.68h-1.64Z" transform="translate(-294.22 -326.49)"/><path class="cls-2" d="M358.88,425.47v12.76h-1.62V436a7.06,7.06,0,0,1-2.32,1.88,6.13,6.13,0,0,1-2.8.64,6.24,6.24,0,0,1-4.63-2,6.56,6.56,0,0,1-1.91-4.77,6.48,6.48,0,0,1,1.93-4.72,6.33,6.33,0,0,1,4.65-2,6.11,6.11,0,0,1,2.85.67,6.51,6.51,0,0,1,2.23,2v-2.35Zm-6.56,1.26a4.93,4.93,0,0,0-4.37,2.56,5.14,5.14,0,0,0-.69,2.58,5.23,5.23,0,0,0,.69,2.58,5.07,5.07,0,0,0,1.85,1.91,4.86,4.86,0,0,0,2.51.68,5.12,5.12,0,0,0,2.55-.67,4.84,4.84,0,0,0,1.86-1.84,5.33,5.33,0,0,0,.65-2.62,5.07,5.07,0,0,0-1.46-3.69A4.82,4.82,0,0,0,352.32,426.73Z" transform="translate(-294.22 -326.49)"/><path class="cls-2" d="M362.36,425.47H364v6a12.47,12.47,0,0,0,.24,3,3.31,3.31,0,0,0,1.34,1.85,4.46,4.46,0,0,0,4.7,0,3.35,3.35,0,0,0,1.32-1.74,12.46,12.46,0,0,0,.25-3.13v-6h1.67v6.26a10,10,0,0,1-.61,4,4.7,4.7,0,0,1-1.85,2.09,6.74,6.74,0,0,1-6.22,0,4.66,4.66,0,0,1-1.86-2.11,10.28,10.28,0,0,1-.62-4.07Z" transform="translate(-294.22 -326.49)"/><path class="cls-2" d="M382.42,420.55v1.6a4.14,4.14,0,0,0-1.54-.38,1.48,1.48,0,0,0-.8.19.81.81,0,0,0-.4.45,5.78,5.78,0,0,0-.08,1.34v1.72h2.66v1.42h-2.67v11.34h-1.65V426.89h-1.67v-1.42h1.67v-2a5.15,5.15,0,0,1,.26-2,2,2,0,0,1,.85-.94,2.8,2.8,0,0,1,1.46-.36A6.89,6.89,0,0,1,382.42,420.55Z" transform="translate(-294.22 -326.49)"/><path class="cls-2" d="M390,420.55v1.6a4.19,4.19,0,0,0-1.55-.38,1.47,1.47,0,0,0-.79.19.87.87,0,0,0-.41.45,6.46,6.46,0,0,0-.08,1.34v1.72h2.66v1.42h-2.66v11.34h-1.64V426.89H383.8v-1.42h1.68v-2a5.4,5.4,0,0,1,.25-2,2,2,0,0,1,.86-.94,2.8,2.8,0,0,1,1.46-.36A6.89,6.89,0,0,1,390,420.55Z" transform="translate(-294.22 -326.49)"/><path class="cls-2" d="M403,434l1.39.72a7.65,7.65,0,0,1-1.58,2.16,6.24,6.24,0,0,1-2,1.25,7,7,0,0,1-2.53.43,6.09,6.09,0,0,1-4.88-2.05,7,7,0,0,1-.27-8.95,6.11,6.11,0,0,1,5.06-2.42,6.3,6.3,0,0,1,5.21,2.48,6.94,6.94,0,0,1,1.41,4.36H393.31a5.19,5.19,0,0,0,1.42,3.64,4.52,4.52,0,0,0,3.39,1.42,5.63,5.63,0,0,0,1.9-.33,5.21,5.21,0,0,0,1.57-.9A7.85,7.85,0,0,0,403,434Zm0-3.44a5.52,5.52,0,0,0-1-2.1,4.58,4.58,0,0,0-1.67-1.26,5,5,0,0,0-2.16-.48,4.67,4.67,0,0,0-3.23,1.2,5.42,5.42,0,0,0-1.49,2.64Z" transform="translate(-294.22 -326.49)"/><path class="cls-2" d="M430.83,424.18l-1.36,1.05a7.49,7.49,0,0,0-2.7-2.23,8,8,0,0,0-3.47-.75,7.64,7.64,0,0,0-3.82,1,7.2,7.2,0,0,0-2.73,2.66,7.41,7.41,0,0,0-1,3.76,7,7,0,0,0,2.16,5.26,7.48,7.48,0,0,0,5.46,2.11,7.68,7.68,0,0,0,6.06-2.83l1.36,1a8.73,8.73,0,0,1-3.22,2.54,10.22,10.22,0,0,1-4.31.89,9,9,0,0,1-7.14-3,9.1,9.1,0,0,1-2.19-6.14,8.6,8.6,0,0,1,2.65-6.38,9.17,9.17,0,0,1,6.66-2.58,9.86,9.86,0,0,1,4.36.95A8.57,8.57,0,0,1,430.83,424.18Z" transform="translate(-294.22 -326.49)"/><path class="cls-2" d="M440.06,425.14a6.32,6.32,0,0,1,4.88,2.14,6.85,6.85,0,0,1-.1,9.28,6.74,6.74,0,0,1-9.58,0,6.84,6.84,0,0,1-.1-9.27A6.31,6.31,0,0,1,440.06,425.14Zm0,1.61a4.79,4.79,0,0,0-3.52,1.51,5.06,5.06,0,0,0-1.47,3.66,5.17,5.17,0,0,0,.67,2.58,4.81,4.81,0,0,0,1.81,1.85,5.15,5.15,0,0,0,5,0,4.76,4.76,0,0,0,1.82-1.85,5.28,5.28,0,0,0,.67-2.58,5,5,0,0,0-1.48-3.66A4.75,4.75,0,0,0,440.05,426.75Z" transform="translate(-294.22 -326.49)"/><path class="cls-2" d="M449.74,425.47h1.65v2.29a6.84,6.84,0,0,1,2.17-2,5.33,5.33,0,0,1,2.61-.66,4.52,4.52,0,0,1,2.53.73,4.36,4.36,0,0,1,1.64,2,10.17,10.17,0,0,1,.53,3.83v6.57h-1.64v-6.09a14.19,14.19,0,0,0-.19-2.94,3.15,3.15,0,0,0-1.09-1.9,3.28,3.28,0,0,0-2.11-.64,4.1,4.1,0,0,0-2.67,1,4.59,4.59,0,0,0-1.55,2.44,16.76,16.76,0,0,0-.23,3.47v4.68h-1.65Z" transform="translate(-294.22 -326.49)"/><path class="cls-2" d="M463.17,425.47h1.75l4.28,9.3,4.23-9.3h1.76l-5.84,12.76h-.3Z" transform="translate(-294.22 -326.49)"/><path class="cls-2" d="M488.43,434l1.38.72a7.63,7.63,0,0,1-1.57,2.16,6.28,6.28,0,0,1-2,1.25,6.87,6.87,0,0,1-2.52.43,6.07,6.07,0,0,1-4.88-2.05,7,7,0,0,1-.27-8.95,6.09,6.09,0,0,1,5.06-2.42,6.3,6.3,0,0,1,5.21,2.48,6.88,6.88,0,0,1,1.4,4.36H478.76a5.15,5.15,0,0,0,1.42,3.64,4.5,4.5,0,0,0,3.39,1.42,5.63,5.63,0,0,0,1.9-.33,5.15,5.15,0,0,0,1.56-.9A7.84,7.84,0,0,0,488.43,434Zm0-3.44a5.53,5.53,0,0,0-1-2.1,4.54,4.54,0,0,0-1.66-1.26,5.09,5.09,0,0,0-2.17-.48,4.7,4.7,0,0,0-3.23,1.2,5.5,5.5,0,0,0-1.49,2.64Z" transform="translate(-294.22 -326.49)"/><path class="cls-2" d="M505.68,428.12l-1.3.81a5.47,5.47,0,0,0-4.61-2.24,5.33,5.33,0,0,0-3.87,1.5,4.93,4.93,0,0,0-1.54,3.64,5.22,5.22,0,0,0,.71,2.63,5,5,0,0,0,1.95,1.91,5.91,5.91,0,0,0,7.36-1.56l1.3.85a6.23,6.23,0,0,1-2.46,2.14,7.94,7.94,0,0,1-3.51.76,6.91,6.91,0,0,1-5-1.93,6.24,6.24,0,0,1-2-4.67,6.65,6.65,0,0,1,.93-3.44,6.5,6.5,0,0,1,2.56-2.48,7.42,7.42,0,0,1,3.65-.9,7.69,7.69,0,0,1,2.44.39,6.94,6.94,0,0,1,2,1A5.66,5.66,0,0,1,505.68,428.12Z" transform="translate(-294.22 -326.49)"/><path class="cls-2" d="M510.26,420.74h1.64v4.73h2.61v1.42H511.9v11.34h-1.64V426.89H508v-1.42h2.23Z" transform="translate(-294.22 -326.49)"/><path class="cls-2" d="M517.54,420.22a1.27,1.27,0,0,1,1,.4,1.31,1.31,0,0,1,.4,1,1.29,1.29,0,0,1-.4.95,1.33,1.33,0,0,1-1.9,0,1.32,1.32,0,0,1-.4-.95,1.35,1.35,0,0,1,.4-1A1.27,1.27,0,0,1,517.54,420.22Zm-.82,5.25h1.64v12.76h-1.64Z" transform="translate(-294.22 -326.49)"/><path class="cls-2" d="M527.81,425.14a6.33,6.33,0,0,1,4.89,2.14,6.85,6.85,0,0,1-.1,9.28,6.74,6.74,0,0,1-9.58,0,6.84,6.84,0,0,1-.1-9.27A6.31,6.31,0,0,1,527.81,425.14Zm0,1.61a4.76,4.76,0,0,0-3.52,1.51,5.06,5.06,0,0,0-1.47,3.66,5.17,5.17,0,0,0,.67,2.58,4.81,4.81,0,0,0,1.81,1.85,5.15,5.15,0,0,0,5,0,4.76,4.76,0,0,0,1.82-1.85,5.28,5.28,0,0,0,.67-2.58,5.07,5.07,0,0,0-1.48-3.66A4.75,4.75,0,0,0,527.81,426.75Z" transform="translate(-294.22 -326.49)"/><path class="cls-2" d="M537.5,425.47h1.64v2.29a6.77,6.77,0,0,1,2.18-2,5.26,5.26,0,0,1,2.6-.66,4.56,4.56,0,0,1,2.54.73,4.34,4.34,0,0,1,1.63,2,10.17,10.17,0,0,1,.53,3.83v6.57H547v-6.09a15.22,15.22,0,0,0-.18-2.94,3.21,3.21,0,0,0-1.1-1.9,3.28,3.28,0,0,0-2.11-.64,4.05,4.05,0,0,0-2.66,1,4.61,4.61,0,0,0-1.56,2.44,17.52,17.52,0,0,0-.23,3.47v4.68H537.5Z" transform="translate(-294.22 -326.49)"/><path class="cls-1" d="M495.7,391.55,494.45,338c0-5.93-2.24-10.72-6.54-10.72S480.12,332,480.12,338v53.59c0,5.92-3.48,10.72-7.78,10.72s-7.79-4.8-7.79-10.72V338c0-5.93-3.49-10.72-7.79-10.72S449,332,449,338v53.59c0,5.92-3.48,10.72-7.78,10.72s-7.79-4.8-7.79-10.72V338c0-5.93-3.49-10.72-7.79-10.72S417.82,332,417.82,338v53.59c0,5.92-3.49,10.72-7.79,10.72s-7.79-4.8-7.79-10.72V338c0-5.93-3.48-10.72-7.78-10.72S386.67,332,386.67,338v53.59c0,5.92-3.49,10.72-7.79,10.72s-7.78-4.8-7.78-10.72v1.71c0,5.92,3.48,10.72,7.78,10.72s7.79-4.8,7.79-10.72v-53.6c0-5.92,3.49-10.72,7.79-10.72s7.78,4.8,7.78,10.72v53.6c0,5.92,3.49,10.72,7.79,10.72s7.79-4.8,7.79-10.72v-53.6c0-5.92,3.49-10.72,7.79-10.72s7.79,4.8,7.79,10.72v53.6c0,5.92,3.49,10.72,7.79,10.72s7.78-4.8,7.78-10.72v-53.6c0-5.92,3.49-10.72,7.79-10.72s7.79,4.8,7.79,10.72v53.6c0,5.92,3.48,10.72,7.79,10.72s7.78-4.8,7.78-10.72v-53.6c0-5.92,3.49-10.72,7.79-10.72s6.54,4.8,6.54,10.72l1.25,53.6Z" transform="translate(-294.22 -326.49)"/></svg>