<svg id="Layer_1" data-name="Layer 1" xmlns="http://www.w3.org/2000/svg" viewBox="0 0 272.13 112.18">
    <defs>
        <style>
            .cls-1 {
                fill: none;
                stroke: #fff;
                stroke-miterlimit: 10;
                stroke-width: 1.5px;
            }

            .cls-2 {
                fill: #fff;
            }
        </style>
    </defs>
    <line class="cls-1" y1="83.17" x2="272.13" y2="83.17" />
    <path class="cls-1"
        d="M495.7,391.55,494.45,338c0-5.93-2.24-10.72-6.54-10.72S480.12,332,480.12,338v53.59c0,5.92-3.48,10.72-7.78,10.72s-7.79-4.8-7.79-10.72V338c0-5.93-3.49-10.72-7.79-10.72S449,332,449,338v53.59c0,5.92-3.48,10.72-7.78,10.72s-7.79-4.8-7.79-10.72V338c0-5.93-3.49-10.72-7.79-10.72S417.82,332,417.82,338v53.59c0,5.92-3.49,10.72-7.79,10.72s-7.79-4.8-7.79-10.72V338c0-5.93-3.48-10.72-7.78-10.72S386.67,332,386.67,338v53.59c0,5.92-3.49,10.72-7.79,10.72s-7.78-4.8-7.78-10.72v1.71c0,5.92,3.48,10.72,7.78,10.72s7.79-4.8,7.79-10.72v-53.6c0-5.92,3.49-10.72,7.79-10.72s7.78,4.8,7.78,10.72v53.6c0,5.92,3.49,10.72,7.79,10.72s7.79-4.8,7.79-10.72v-53.6c0-5.92,3.49-10.72,7.79-10.72s7.79,4.8,7.79,10.72v53.6c0,5.92,3.49,10.72,7.79,10.72s7.78-4.8,7.78-10.72v-53.6c0-5.92,3.49-10.72,7.79-10.72s7.79,4.8,7.79,10.72v53.6c0,5.92,3.48,10.72,7.79,10.72s7.78-4.8,7.78-10.72v-53.6c0-5.92,3.49-10.72,7.79-10.72s6.54,4.8,6.54,10.72l1.25,53.6Z"
        transform="translate(-294.22 -326.49)" />
</svg>